<?xml version="1.0" encoding="UTF-8" standalone="no"?>
<svg width="143px" height="24px" viewBox="0 0 143 24" version="1.1" xmlns="http://www.w3.org/2000/svg" xmlns:xlink="http://www.w3.org/1999/xlink" xmlns:sketch="http://www.bohemiancoding.com/sketch/ns">
    <!-- Generator: Sketch 3.2.2 (9983) - http://www.bohemiancoding.com/sketch -->
    <title>tunetwin</title>
    <desc>Created with Sketch.</desc>
    <defs></defs>
    <g id="Page-2" stroke="none" stroke-width="1" fill="none" fill-rule="evenodd" sketch:type="MSPage">
        <g id="Home" sketch:type="MSArtboardGroup" transform="translate(-28.000000, -27.000000)">
            <g id="Header" sketch:type="MSLayerGroup" transform="translate(28.000000, 27.000000)">
                <g id="logo" sketch:type="MSShapeGroup">
                    <circle id="Oval-9" fill="#E24931" cx="140" cy="21" r="3"></circle>
                    <path d="M8.26478726,7.3791259 L10.0049436,1.8994848 L5.89521274,2.04758321 L0.637719247,18.7827033 C-0.287895803,21.8187207 0.896891462,23.7069754 3.22944139,23.7069754 C5.11769609,23.7069754 7.19107381,22.5221881 8.44991027,19.930466 L7.89454124,19.7083184 C6.82082779,21.6706223 5.82116353,22.3740897 4.67340087,22.3740897 C4.00695803,22.3740897 3.74778582,21.8557453 3.93290883,21.1893025 L8.07966425,8.00854414 L10.8565094,8.00854414 C10.9305586,8.00854414 11.078657,7.3791259 11.0416324,7.3791259 L8.26478726,7.3791259 Z M28.9985644,7.3791259 L24.9258582,7.60127352 L22.334136,15.8207352 C19.8905123,20.1526136 18.4835774,21.7076469 16.8174703,21.7076469 C15.9288799,21.7076469 15.4845847,21.0412041 15.4845847,20.1526136 C15.4845847,16.8203994 18.520602,13.0809146 18.520602,10.0448973 C18.520602,8.45283936 17.6320116,7.2680521 15.7067323,7.2680521 C14.0406252,7.2680521 12.3004689,8.30474096 11.3008046,10.5632417 L11.8561737,10.7853893 C12.5966657,9.26738061 13.4482315,8.52688857 14.1146744,8.52688857 C14.7440926,8.52688857 14.9662402,8.82308538 14.9662402,9.67465123 C14.9662402,11.8220781 11.634026,16.7093256 11.634026,20.3377366 C11.634026,22.4851635 12.9298871,23.7069754 14.8551664,23.7069754 C16.8915195,23.7069754 19.2610941,22.2259913 21.6306686,18.0792359 C20.2977829,22.0038437 21.96389,23.7069754 24.1113169,23.7069754 C25.8144486,23.7069754 27.8878263,22.5592127 29.220712,19.930466 L28.665343,19.7083184 C27.5916295,21.6335977 26.7030391,22.3370651 25.5552764,22.3370651 C24.7777598,22.3370651 24.4445384,21.8927699 24.7037106,21.1522779 L28.9985644,7.3791259 Z M49.7693661,19.930466 L49.2139971,19.7083184 C48.103259,21.6335977 47.1035948,22.3740897 45.9928567,22.3740897 C45.1783155,22.3740897 44.8450941,21.7816961 44.8450941,20.9301302 C44.8450941,18.7827033 48.1773082,14.2657019 48.1773082,10.6372909 C48.1773082,8.48986397 46.992521,7.2680521 45.1042663,7.2680521 C43.0679132,7.2680521 40.5132156,8.71201158 38.1436411,12.8957916 C39.4024776,9.0822576 38.0325673,7.2680521 35.8481158,7.2680521 C34.0709349,7.2680521 32.293754,8.48986397 31.3311143,10.6002663 L31.8864834,10.8224139 C32.664,9.1563068 33.4415166,8.56391317 34.1820087,8.56391317 C34.9225007,8.56391317 35.2927467,9.26738061 34.9595253,10.3410941 L30.8497945,23.373754 L34.8854761,23.373754 L37.4401737,15.1913169 C39.920822,10.8224139 41.2907323,9.26738061 42.993864,9.26738061 C43.8824544,9.26738061 44.289725,9.93382344 44.289725,10.8594385 C44.289725,14.1546281 41.2907323,17.9311375 41.2907323,20.9301302 C41.2907323,22.4481389 42.4384949,23.7069754 44.4378234,23.7069754 C46.2520289,23.7069754 48.5105297,22.4851635 49.7693661,19.930466 L49.7693661,19.930466 Z M65.3937482,10.6743155 C65.3937482,8.93415919 63.7646657,7.2680521 60.6545991,7.2680521 C55.7303271,7.2680521 51.2873748,12.2293488 51.2873748,17.5238669 C51.2873748,21.1893025 53.7309986,23.7069754 57.0632127,23.7069754 C59.5808857,23.7069754 61.3950912,22.6332619 63.1352475,20.5598842 L62.802026,20.1526136 C61.2469928,21.8557453 59.7660087,23.1516064 57.1002373,23.1516064 C55.360081,23.1516064 54.8417366,22.0778929 54.8417366,20.2636874 C54.8417366,19.0789001 55.2119826,17.1906454 55.7673517,15.4875137 L56.7670159,15.4875137 C61.6172388,15.4875137 65.3937482,13.6362836 65.3937482,10.6743155 L65.3937482,10.6743155 Z M62.0245094,9.85977424 C62.0245094,12.303398 61.1729436,14.8951201 56.5818929,14.8951201 L55.8784255,14.8951201 C56.9891635,11.0075369 57.9147786,7.89747033 60.5435253,7.89747033 C61.506165,7.89747033 62.0245094,8.37879016 62.0245094,9.85977424 L62.0245094,9.85977424 Z M78.0931867,7.3791259 L75.3163415,7.3791259 L77.0564978,1.8994848 L72.946767,2.04758321 L71.3176845,7.3791259 L68.6148886,7.3791259 C68.5408394,7.3791259 68.3557164,8.00854414 68.4297656,8.00854414 L71.1325615,8.00854414 L67.6892735,18.7827033 C66.7636585,21.8187207 67.9484457,23.7069754 70.2809957,23.7069754 C72.1692504,23.7069754 74.2426281,22.5221881 75.5014645,19.930466 L74.9460955,19.7083184 C73.8723821,21.6706223 72.8727178,22.3740897 71.7249551,22.3740897 C71.0585123,22.3740897 70.7993401,21.8557453 70.9844631,21.1893025 L75.1312185,8.00854414 L77.9080637,8.00854414 C77.9821129,8.00854414 78.1302113,7.3791259 78.0931867,7.3791259 L78.0931867,7.3791259 Z M102.862645,10.1929957 C102.862645,8.67498698 102.196203,7.3050767 100.604145,7.3050767 C99.4934067,7.3050767 98.9380376,8.41581476 98.9380376,9.67465123 C98.9380376,11.6739797 99.4193575,12.2293488 99.4193575,15.0432185 C99.4193575,19.2640232 95.9390449,22.6332619 93.0881505,22.6332619 C91.4220434,22.6332619 90.903699,21.5595485 91.5701418,19.5231954 L95.2355774,7.45317511 L91.1628712,7.63829812 L88.4230507,16.6352764 C86.719919,20.300712 85.0538119,21.9668191 83.6839016,21.9668191 C82.7582865,21.9668191 82.2029175,21.4114501 82.2029175,20.300712 C82.2029175,16.9684978 85.2019103,13.0809146 85.2019103,10.0819219 C85.2019103,8.45283936 84.3133198,7.3050767 82.3880405,7.3050767 C80.7219334,7.3050767 79.0188017,8.34176556 77.9821129,10.6002663 L78.5745065,10.8224139 C79.277974,9.30440521 80.1665644,8.56391317 80.7959826,8.56391317 C81.4254009,8.56391317 81.6845731,8.86010999 81.6845731,9.67465123 C81.6845731,11.8220781 78.3153343,16.5242026 78.3153343,20.4488104 C78.3153343,22.5962373 79.5741708,23.744 81.6105239,23.744 C83.5358032,23.744 86.4977713,21.6335977 87.7936324,18.9678263 C87.1271896,21.8557453 89.3486657,23.744 92.2736093,23.744 C96.4944139,23.744 102.862645,16.8944486 102.862645,10.1929957 L102.862645,10.1929957 Z M114.784567,2.41850072 C114.784567,1.15966425 113.858952,0.16 112.674165,0.16 C111.415329,0.16 110.452689,1.15966425 110.452689,2.41850072 C110.452689,3.56626339 111.415329,4.52890304 112.674165,4.52890304 C113.858952,4.52890304 114.784567,3.56626339 114.784567,2.41850072 L114.784567,2.41850072 Z M113.933001,19.930466 L113.414657,19.7083184 C112.340944,21.6706223 111.341279,22.3740897 110.193517,22.3740897 C109.378975,22.3740897 109.082779,21.7816961 109.082779,20.9301302 C109.082779,18.5605557 112.71119,13.7843821 112.71119,10.1189465 C112.71119,8.60093777 111.74855,7.2680521 109.823271,7.2680521 C107.897991,7.2680521 106.083786,8.48986397 105.121146,10.6002663 L105.676515,10.8224139 C106.379983,9.41547902 107.379647,8.56391317 108.009065,8.56391317 C108.675508,8.56391317 109.008729,8.86010999 109.008729,9.78572504 C109.008729,12.7847178 105.417343,17.4868423 105.417343,20.7820318 C105.417343,22.4481389 106.565106,23.7069754 108.601459,23.7069754 C110.563763,23.7069754 112.785239,22.3000405 113.933001,19.930466 L113.933001,19.930466 Z M134.407606,19.930466 L133.852237,19.7083184 C132.741499,21.6335977 131.741835,22.3740897 130.631097,22.3740897 C129.816556,22.3740897 129.483334,21.7816961 129.483334,20.9301302 C129.483334,18.7827033 132.815548,14.2657019 132.815548,10.6372909 C132.815548,8.48986397 131.630761,7.2680521 129.742507,7.2680521 C127.706153,7.2680521 125.151456,8.71201158 122.781881,12.8957916 C124.040718,9.0822576 122.670808,7.2680521 120.486356,7.2680521 C118.709175,7.2680521 116.931994,8.48986397 115.969355,10.6002663 L116.524724,10.8224139 C117.30224,9.1563068 118.079757,8.56391317 118.820249,8.56391317 C119.560741,8.56391317 119.930987,9.26738061 119.597766,10.3410941 L115.488035,23.373754 L119.523716,23.373754 L122.078414,15.1913169 C124.559062,10.8224139 125.928973,9.26738061 127.632104,9.26738061 C128.520695,9.26738061 128.927965,9.93382344 128.927965,10.8594385 C128.927965,14.1546281 125.928973,17.9311375 125.928973,20.9301302 C125.928973,22.4481389 127.076735,23.7069754 129.076064,23.7069754 C130.890269,23.7069754 133.14877,22.4851635 134.407606,19.930466 L134.407606,19.930466 Z" id="tunetwin" fill="#242020"></path>
                </g>
            </g>
        </g>
    </g>
</svg>