<?xml version="1.0" encoding="UTF-8" standalone="no"?>
<svg width="10px" height="10px" viewBox="0 0 10 10" version="1.1" xmlns="http://www.w3.org/2000/svg" xmlns:xlink="http://www.w3.org/1999/xlink" xmlns:sketch="http://www.bohemiancoding.com/sketch/ns">
    <!-- Generator: Sketch 3.2.2 (9983) - http://www.bohemiancoding.com/sketch -->
    <title>plus</title>
    <desc>Created with Sketch.</desc>
    <defs></defs>
    <g id="Page-2" stroke="none" stroke-width="1" fill="none" fill-rule="evenodd" sketch:type="MSPage">
        <g id="Home" sketch:type="MSArtboardGroup" transform="translate(-64.000000, -252.000000)" stroke="#000000" stroke-linecap="square">
            <path d="M70,256 L70,252.995398 C70,252.455664 69.5522847,252 69,252 C68.4438648,252 68,252.445655 68,252.995398 L68,256 L64.9953976,256 C64.4556644,256 64,256.447715 64,257 C64,257.556135 64.4456547,258 64.9953976,258 L68,258 L68,261.004602 C68,261.544336 68.4477153,262 69,262 C69.5561352,262 70,261.554345 70,261.004602 L70,258 L73.0046024,258 C73.5443356,258 74,257.552285 74,257 C74,256.443865 73.5543453,256 73.0046024,256 L70,256 Z" id="Rectangle-28" sketch:type="MSShapeGroup"></path>
        </g>
    </g>
</svg>