<?xml version="1.0" encoding="UTF-8" standalone="no"?>
<svg width="108px" height="49px" viewBox="0 0 108 49" version="1.1" xmlns="http://www.w3.org/2000/svg" xmlns:xlink="http://www.w3.org/1999/xlink" xmlns:sketch="http://www.bohemiancoding.com/sketch/ns">
    <!-- Generator: Sketch 3.2.2 (9983) - http://www.bohemiancoding.com/sketch -->
    <title>repeat</title>
    <desc>Created with Sketch.</desc>
    <defs></defs>
    <g id="Page-2" stroke="none" stroke-width="1" fill="none" fill-rule="evenodd" sketch:type="MSPage">
        <g id="Home" sketch:type="MSArtboardGroup" transform="translate(-315.000000, -903.000000)">
            <g id="Group" sketch:type="MSLayerGroup" transform="translate(315.000000, 902.000000)">
                <path d="M1.5,1.5 L107.5,1.5" id="Line" stroke="#DDDDDD" stroke-linecap="square" sketch:type="MSShapeGroup"></path>
                <path d="M1.5,13.5 L107.5,13.5" id="Line-2" stroke="#DDDDDD" stroke-linecap="square" sketch:type="MSShapeGroup"></path>
                <path d="M1.5,25.5 L107.5,25.5" id="Line-3" stroke="#DDDDDD" stroke-linecap="square" sketch:type="MSShapeGroup"></path>
                <path d="M1.5,37.5 L107.5,37.5" id="Line-4" stroke="#DDDDDD" stroke-linecap="square" sketch:type="MSShapeGroup"></path>
                <path d="M1.5,49.5 L107.5,49.5" id="Line-5" stroke="#DDDDDD" stroke-linecap="square" sketch:type="MSShapeGroup"></path>
                <g id="Repeat-Sign" transform="translate(87.000000, 1.000000)" fill="#DDDDDD" sketch:type="MSShapeGroup">
                    <circle id="Oval-26" cx="2.5" cy="18.5" r="2.5"></circle>
                    <circle id="Oval-27" cx="2.5" cy="30.5" r="2.5"></circle>
                    <path d="M13,47.2073171 L13,49 L21,49 L21,47.2073171 L21,1.79268293 L21,0 L13,0 L13,1.79268293 L13,47.2073171 Z" id="Line-7"></path>
                    <path d="M8,47.7594937 L8,49 L10,49 L10,47.7594937 L10,1.24050633 L10,0 L8,0 L8,1.24050633 L8,47.7594937 Z" id="Line-8"></path>
                </g>
                <g id="Repeat-Sign-2" transform="translate(10.500000, 25.500000) scale(-1, 1) translate(-10.500000, -25.500000) translate(0.000000, 1.000000)" fill="#DDDDDD" sketch:type="MSShapeGroup">
                    <circle id="Oval-26" cx="2.5" cy="18.5" r="2.5"></circle>
                    <circle id="Oval-27" cx="2.5" cy="30.5" r="2.5"></circle>
                    <path d="M13,47.2073171 L13,49 L21,49 L21,47.2073171 L21,1.79268293 L21,0 L13,0 L13,1.79268293 L13,47.2073171 Z" id="Line-7"></path>
                    <path d="M8,47.7594937 L8,49 L10,49 L10,47.7594937 L10,1.24050633 L10,0 L8,0 L8,1.24050633 L8,47.7594937 Z" id="Line-8"></path>
                </g>
            </g>
        </g>
    </g>
</svg>